<svg width="56" height="55" viewBox="0 0 56 55" fill="none" xmlns="http://www.w3.org/2000/svg">
<path d="M6.16249 43.5646L6.11666 43.6104C5.49791 42.2583 5.10832 40.7229 4.94791 39.0271C5.10832 40.7 5.54374 42.2125 6.16249 43.5646Z" fill="white"/>
<path d="M20.875 23.7875C23.8873 23.7875 26.3292 21.3456 26.3292 18.3333C26.3292 15.3211 23.8873 12.8792 20.875 12.8792C17.8628 12.8792 15.4208 15.3211 15.4208 18.3333C15.4208 21.3456 17.8628 23.7875 20.875 23.7875Z" fill="white"/>
<path d="M37.3521 4.58337H18.1479C9.80626 4.58337 4.83334 9.55629 4.83334 17.898V37.1021C4.83334 39.6 5.26876 41.7771 6.11668 43.6105C8.08751 47.9646 12.3042 50.4167 18.1479 50.4167H37.3521C45.6938 50.4167 50.6667 45.4438 50.6667 37.1021V31.8542V17.898C50.6667 9.55629 45.6938 4.58337 37.3521 4.58337ZM46.9313 28.6459C45.1438 27.1105 42.2563 27.1105 40.4688 28.6459L30.9354 36.8271C29.1479 38.3625 26.2604 38.3625 24.4729 36.8271L23.6938 36.1855C22.0667 34.7646 19.4771 34.6271 17.6438 35.8646L9.07293 41.6167C8.56876 40.3334 8.27084 38.8438 8.27084 37.1021V17.898C8.27084 11.4355 11.6854 8.02087 18.1479 8.02087H37.3521C43.8146 8.02087 47.2292 11.4355 47.2292 17.898V28.898L46.9313 28.6459Z" fill="white"/>
</svg>
